<?xml version="1.0" standalone="yes"?>
<svg width="44" height="44">
<path style="fill:#ffffff; stroke:none;" d="M0 0L0 8L1 8L8 1L0 0z"/>
<path style="fill:#3e372f; stroke:none;" d="M8.66667 0.333332L9.33333 0.666668L8.66667 0.333332z"/>
<path style="fill:#c7b299; stroke:none;" d="M10 0.656635C-7.64836 5.98774 1.81887 28.8411 11.0903 37.0764C14.4379 40.0499 19.1548 44.2613 24 42.9005C36.81 39.3026 50.7841 16.9093 40.6057 5.10802C34.4339 -2.04787 28.5881 2.01233 21 1.49074C17.1892 1.22879 13.881 -0.515724 10 0.656635z"/>
<path style="fill:#564d42; stroke:none;" d="M16 0L16 1L19 1L16 0z"/>
<path style="fill:#ffffff; stroke:none;" d="M19 0L19 1L25 1L19 0z"/>
<path style="fill:#5b5146; stroke:none;" d="M25.6667 0.333332L26.3333 0.666668L25.6667 0.333332z"/>
<path style="fill:#3e372f; stroke:none;" d="M33 0L33 1L36 1L33 0z"/>
<path style="fill:#ffffff; stroke:none;" d="M36 0L36 1L43 8L44 8L44 0L36 0z"/>
<path style="fill:#5e5448; stroke:none;" d="M6.66667 1.33333L7.33333 1.66667L6.66667 1.33333z"/>
<path style="fill:#27231e; stroke:none;" d="M20 1L21 2L20 1z"/>
<path style="fill:#2b2621; stroke:none;" d="M23 1L24 2L23 1z"/>
<path style="fill:#060504; stroke:none;" d="M36.6667 1.33333L37.3333 1.66667L36.6667 1.33333z"/>
<path style="fill:#312c26; stroke:none;" d="M5 2L6 3L5 2z"/>
<path style="fill:#736758; stroke:none;" d="M21.6667 2.33333L22.3333 2.66667L21.6667 2.33333z"/>
<path style="fill:#312c26; stroke:none;" d="M38 2L39 3L38 2z"/>
<path style="fill:#4f473d; stroke:none;" d="M4 3L5 4L4 3z"/>
<path style="fill:#332d27; stroke:none;" d="M9 3L9 4L12 4L9 3z"/>
<path style="fill:#ffffff; stroke:none;" d="M19 16L17 16L18 4C-5.70767 -1.13665 5.16567 32.7362 19 38.7029C31.7706 44.2109 46.1371 17.0842 38.1458 7.34028C29.9384 -2.66725 21.2117 7.56662 19 16z"/>
<path style="fill:#595044; stroke:none;" d="M16.6667 3.33333L17.3333 3.66667L16.6667 3.33333z"/>
<path style="fill:#161311; stroke:none;" d="M26.6667 3.33333L27.3333 3.66667L26.6667 3.33333z"/>
<path style="fill:#332d27; stroke:none;" d="M32.6667 3.33333L33.3333 3.66667L32.6667 3.33333z"/>
<path style="fill:#4f473d; stroke:none;" d="M39 3L40 4L39 3z"/>
<path style="fill:#51493e; stroke:none;" d="M3 4L4 5L3 4z"/>
<path style="fill:#181512; stroke:none;" d="M8 4L9 5L8 4z"/>
<path style="fill:#000000; stroke:none;" d="M18 4L18 7L19 7L18 4z"/>
<path style="fill:#8c7d6c; stroke:none;" d="M19.3333 4.66667L19.6667 5.33333L19.3333 4.66667z"/>
<path style="fill:#010000; stroke:none;" d="M24.6667 4.33333L25.3333 4.66667L24.6667 4.33333z"/>
<path style="fill:#181512; stroke:none;" d="M35 4L36 5L35 4z"/>
<path style="fill:#51493e; stroke:none;" d="M40 4L41 5L40 4z"/>
<path style="fill:#2e2923; stroke:none;" d="M2 5L3 6L2 5z"/>
<path style="fill:#010101; stroke:none;" d="M7 5L8 6L7 5z"/>
<path style="fill:#1e1a17; stroke:none;" d="M23 5L24 6L23 5z"/>
<path style="fill:#5b5146; stroke:none;" d="M29 5L29 6L33 6L29 5z"/>
<path style="fill:#010101; stroke:none;" d="M36 5L37 6L36 5z"/>
<path style="fill:#2e2923; stroke:none;" d="M41 5L42 6L41 5z"/>
<path style="fill:#5f5549; stroke:none;" d="M1.33333 6.66667L1.66667 7.33333L1.33333 6.66667z"/>
<path style="fill:#171411; stroke:none;" d="M22 6L23 7L22 6z"/>
<path style="fill:#040303; stroke:none;" d="M28.3333 6.66667L28.6667 7.33333L28.3333 6.66667z"/>
<path style="fill:#c7b299; stroke:none;" d="M29 6L38 15C37.6619 8.84114 35.1589 6.33814 29 6z"/>
<path style="fill:#37322a; stroke:none;" d="M34 6L35 7L34 6z"/>
<path style="fill:#5f5549; stroke:none;" d="M42.3333 6.66667L42.6667 7.33333L42.3333 6.66667z"/>
<path style="fill:#010101; stroke:none;" d="M5 7L6 8L5 7z"/>
<path style="fill:#544c41; stroke:none;" d="M17.3333 7.66667L17.6667 8.33333L17.3333 7.66667z"/>
<path style="fill:#302b24; stroke:none;" d="M21 7L22 8L21 7z"/>
<path style="fill:#010101; stroke:none;" d="M36 7L37 8L36 7M38 7L39 8L38 7z"/>
<path style="fill:#3e372f; stroke:none;" d="M0.333333 8.66667L0.666667 9.33333L0.333333 8.66667z"/>
<path style="fill:#1f1c18; stroke:none;" d="M4 8L5 9L4 8z"/>
<path style="fill:#363029; stroke:none;" d="M29 8L29 9L32 9L29 8z"/>
<path style="fill:#181512; stroke:none;" d="M39 8L40 9L39 8z"/>
<path style="fill:#3e372f; stroke:none;" d="M43.3333 8.66667L43.6667 9.33333L43.3333 8.66667z"/>
<path style="fill:#332d27; stroke:none;" d="M3 9L3 12L4 12L3 9z"/>
<path style="fill:#1a1714; stroke:none;" d="M20 9L21 10L20 9z"/>
<path style="fill:#453d35; stroke:none;" d="M33 9L34 10L33 9z"/>
<path style="fill:#37322a; stroke:none;" d="M37 9L38 10L37 9z"/>
<path style="fill:#322d26; stroke:none;" d="M40 9L40 12L41 12L40 9z"/>
<path style="fill:#5d5347; stroke:none;" d="M16 10L16 15L17 15L16 10z"/>
<path style="fill:#453d35; stroke:none;" d="M34 10L35 11L34 10z"/>
<path style="fill:#413a32; stroke:none;" d="M19 11L19 15L20 15L19 11z"/>
<path style="fill:#4e463c; stroke:none;" d="M38 11L38 15L39 15L38 11z"/>
<path style="fill:#988875; stroke:none;" d="M2 12L2 16L3 16L2 12z"/>
<path style="fill:#342e27; stroke:none;" d="M35 12L35 15L36 15L35 12z"/>
<path style="fill:#988875; stroke:none;" d="M41 12L41 16L42 16L41 12z"/>
<path style="fill:#040303; stroke:none;" d="M17.6667 15.3333L18.3333 15.6667L17.6667 15.3333z"/>
<path style="fill:#0a0907; stroke:none;" d="M36.6667 15.3333L37.3333 15.6667L36.6667 15.3333z"/>
<path style="fill:#28241e; stroke:none;" d="M3 17L3 20L4 20L3 17z"/>
<path style="fill:#29241f; stroke:none;" d="M40 17L40 20L41 20L40 17z"/>
<path style="fill:#25211c; stroke:none;" d="M0 19L0 22L1 22L0 19z"/>
<path style="fill:#25211d; stroke:none;" d="M43 19L43 22L44 22L43 19z"/>
<path style="fill:#352f29; stroke:none;" d="M4.33333 21.6667L4.66667 22.3333L4.33333 21.6667M39.3333 21.6667L39.6667 22.3333L39.3333 21.6667z"/>
<path style="fill:#ffffff; stroke:none;" d="M0 22L0 44L19 44L19 43C10.2123 37.415 5.64631 30.3549 0 22z"/>
<path style="fill:#37312a; stroke:none;" d="M1 22L1 25L2 25L1 22z"/>
<path style="fill:#37322a; stroke:none;" d="M42 22L42 25L43 25L42 22z"/>
<path style="fill:#ffffff; stroke:none;" d="M43 22C40.3014 31.1709 32.866 38.0008 25 43L25 44L44 44L43 22z"/>
<path style="fill:#6d6154; stroke:none;" d="M5.33333 24.6667L5.66667 25.3333L5.33333 24.6667M38.3333 24.6667L38.6667 25.3333L38.3333 24.6667z"/>
<path style="fill:#0c0a09; stroke:none;" d="M2.33333 25.6667L2.66667 26.3333L2.33333 25.6667z"/>
<path style="fill:#0c0b09; stroke:none;" d="M41.3333 25.6667L41.6667 26.3333L41.3333 25.6667z"/>
<path style="fill:#171411; stroke:none;" d="M6 26L7 27L6 26z"/>
<path style="fill:#161311; stroke:none;" d="M37 26L38 27L37 26z"/>
<path style="fill:#090807; stroke:none;" d="M3.33333 27.6667L3.66667 28.3333L3.33333 27.6667M40.3333 27.6667L40.6667 28.3333L40.3333 27.6667z"/>
<path style="fill:#38322b; stroke:none;" d="M7 28L8 29L7 28z"/>
<path style="fill:#37322a; stroke:none;" d="M36 28L37 29L36 28z"/>
<path style="fill:#474037; stroke:none;" d="M4 29L5 30L4 29z"/>
<path style="fill:#0d0c0a; stroke:none;" d="M8 29L9 30L8 29M35 29L36 30L35 29z"/>
<path style="fill:#474037; stroke:none;" d="M39 29L40 30L39 29z"/>
<path style="fill:#000000; stroke:none;" d="M9 30L10 31L9 30M34 30L35 31L34 30z"/>
<path style="fill:#110f0d; stroke:none;" d="M5 31L6 32L5 31z"/>
<path style="fill:#12100d; stroke:none;" d="M38 31L39 32L38 31z"/>
<path style="fill:#2f2a24; stroke:none;" d="M6 32L7 33L6 32z"/>
<path style="fill:#4d443b; stroke:none;" d="M10 32L11 33L10 32z"/>
<path style="fill:#4a4239; stroke:none;" d="M33 32L34 33L33 32z"/>
<path style="fill:#302b24; stroke:none;" d="M37 32L38 33L37 32z"/>
<path style="fill:#51493e; stroke:none;" d="M7 33L8 34L7 33z"/>
<path style="fill:#463e35; stroke:none;" d="M11 33L12 34L11 33z"/>
<path style="fill:#453d35; stroke:none;" d="M32 33L33 34L32 33z"/>
<path style="fill:#51493e; stroke:none;" d="M36 33L37 34L36 33z"/>
<path style="fill:#4a4238; stroke:none;" d="M12 34L13 35L12 34z"/>
<path style="fill:#494138; stroke:none;" d="M31 34L32 35L31 34z"/>
<path style="fill:#645a4d; stroke:none;" d="M9 35L10 36L9 35z"/>
<path style="fill:#5f5549; stroke:none;" d="M13 35L14 36L13 35M30 35L31 36L30 35z"/>
<path style="fill:#655a4e; stroke:none;" d="M34 35L35 36L34 35z"/>
<path style="fill:#564d42; stroke:none;" d="M10 36L11 37L10 36z"/>
<path style="fill:#080706; stroke:none;" d="M15 36L16 37L15 36M28 36L29 37L28 36z"/>
<path style="fill:#564d42; stroke:none;" d="M33 36L34 37L33 36z"/>
<path style="fill:#494138; stroke:none;" d="M11 37L12 38L11 37z"/>
<path style="fill:#25211d; stroke:none;" d="M16 37L17 38L16 37M27 37L28 38L27 37z"/>
<path style="fill:#494138; stroke:none;" d="M32 37L33 38L32 37z"/>
<path style="fill:#38322b; stroke:none;" d="M12 38L13 39L12 38z"/>
<path style="fill:#040303; stroke:none;" d="M17.6667 38.3333L18.3333 38.6667L17.6667 38.3333z"/>
<path style="fill:#5f5549; stroke:none;" d="M25.6667 38.3333L26.3333 38.6667L25.6667 38.3333z"/>
<path style="fill:#37322a; stroke:none;" d="M31 38L32 39L31 38z"/>
<path style="fill:#171411; stroke:none;" d="M13 39L14 40L13 39z"/>
<path style="fill:#322d26; stroke:none;" d="M19 39L20 40L19 39M24 39L25 40L24 39z"/>
<path style="fill:#171411; stroke:none;" d="M30 39L31 40L30 39z"/>
<path style="fill:#5f5549; stroke:none;" d="M14.6667 40.3333L15.3333 40.6667L14.6667 40.3333z"/>
<path style="fill:#221f1a; stroke:none;" d="M21.6667 40.3333L22.3333 40.6667L21.6667 40.3333z"/>
<path style="fill:#020201; stroke:none;" d="M28.6667 40.3333L29.3333 40.6667L28.6667 40.3333z"/>
<path style="fill:#211d19; stroke:none;" d="M16 41L17 42L16 41z"/>
<path style="fill:#201c18; stroke:none;" d="M27 41L28 42L27 41z"/>
<path style="fill:#423b33; stroke:none;" d="M18 42L19 43L18 42z"/>
<path style="fill:#433c34; stroke:none;" d="M25 42L26 43L25 42z"/>
<path style="fill:#4f473d; stroke:none;" d="M19.6667 43.3333L20.3333 43.6667L19.6667 43.3333z"/>
<path style="fill:#030302; stroke:none;" d="M23.6667 43.3333L24.3333 43.6667L23.6667 43.3333z"/>
</svg>
