<?xml version="1.0" standalone="yes"?>
<svg width="18" height="24">
<path style="fill:#ffffff; stroke:none;" d="M0 0L5 4L5 9L4 9L4 5L2 5L2 18L1 18L1 5L0 5L0 22L1 22L1 19C6.07432 19 13.9422 17.2834 17 22L18 22L18 5L17 5L17 18L16 18L16 5L14 5L14 9L13 9L13 4L18 0L13 0L14 3L0 0z"/>
<path style="fill:#0a0a0a; stroke:none;" d="M5 0L6 1L5 0z"/>
<path style="fill:#8a8a8a; stroke:none;" d="M6 0L6 1L10 2L10 1L6 0z"/>
<path style="fill:#f7f7f7; stroke:none;" d="M8.66667 0.333334L9.33333 0.666666L8.66667 0.333334z"/>
<path style="fill:#cecece; stroke:none;" d="M10 0L13 2L10 0z"/>
<path style="fill:#0a0a0a; stroke:none;" d="M12 0L13 1L12 0z"/>
<path style="fill:#0b0b0b; stroke:none;" d="M4 1L5 2L4 1M13 1L14 2L13 1z"/>
<path style="fill:#656565; stroke:none;" d="M4 2L5 3L4 2z"/>
<path style="fill:#343434; stroke:none;" d="M6 2L7 3L6 2z"/>
<path style="fill:#353535; stroke:none;" d="M11 2L12 3L11 2z"/>
<path style="fill:#656565; stroke:none;" d="M13 2L14 3L13 2z"/>
<path style="fill:#050505; stroke:none;" d="M0 3L1 4L0 3z"/>
<path style="fill:#919191; stroke:none;" d="M1 3L2 4L1 3M16 3L17 4L16 3z"/>
<path style="fill:#050505; stroke:none;" d="M17 3L18 4L17 3z"/>
<path style="fill:#8f8f8f; stroke:none;" d="M0 4L1 5L0 4z"/>
<path style="fill:#fefefe; stroke:none;" d="M1 4L2 5L1 4z"/>
<path style="fill:#777777; stroke:none;" d="M2 4L2 5L4 9L5 9L5 4L2 4z"/>
<path style="fill:#767676; stroke:none;" d="M6 4L6 5L12 5L6 4z"/>
<path style="fill:#777777; stroke:none;" d="M13 4L13 9L14 9L16 5L13 4z"/>
<path style="fill:#fefefe; stroke:none;" d="M16 4L17 5L16 4z"/>
<path style="fill:#8f8f8f; stroke:none;" d="M17 4L18 5L17 4z"/>
<path style="fill:#878787; stroke:none;" d="M1 5L1 18L2 18L1 5M16 5L16 18L17 18L16 5z"/>
<path style="fill:#767676; stroke:none;" d="M1 22L2 22C5.82399 19.1029 12.176 19.1029 16 22C18.0238 18.1259 2.1282 16.7351 1 22z"/>
<path style="fill:#ffffff; stroke:none;" d="M2 20L2 22L16 22L16 20L2 20z"/>
<path style="fill:#8f8f8f; stroke:none;" d="M0 22L2 24L0 22z"/>
<path style="fill:#fefefe; stroke:none;" d="M1 22L2 23L1 22z"/>
<path style="fill:#888888; stroke:none;" d="M2 22L2 23L16 23L2 22z"/>
<path style="fill:#fefefe; stroke:none;" d="M16 22L17 23L16 22z"/>
<path style="fill:#8f8f8f; stroke:none;" d="M17 22L16 24L17 22z"/>
<path style="fill:#050505; stroke:none;" d="M0 23L1 24L0 23z"/>
<path style="fill:#ffffff; stroke:none;" d="M2 23L2 24L16 24L2 23z"/>
<path style="fill:#050505; stroke:none;" d="M17 23L18 24L17 23z"/>
</svg>
