<?xml version="1.0" standalone="yes"?>
<svg width="48" height="44">
<path style="fill:#ffffff; stroke:none;" d="M0 0L0 41L35 41C38.4617 41 45.3556 39.6011 46 44C49.9056 40.5871 48 30.9301 48 26C37.6356 31.2211 10.3945 50.4719 6.22454 26C5.35084 20.8726 6 15.1933 6 10C14.2692 9.99361 16.5617 8.28511 14 0L0 0z"/>
<path style="fill:#322d26; stroke:none;" d="M14 0L14 3L15 3L14 0z"/>
<path style="fill:#c7b299; stroke:none;" d="M15 0C16.5332 7.81184 15.2291 9.97091 7 10C7 16.4493 5.17709 26.2332 9.00926 31.8117C17.4855 44.1506 39.3023 34.2219 46.2577 25.6829C50.8401 20.0572 45.7779 14.4396 40 14L40 10L27 10L27 12L38 12C38 17.7194 38.8622 24.058 35.3472 28.9815C28.9139 37.9928 14.4146 36.8625 9.45679 26.9992C7.20838 22.5261 8 16.8531 8 12L14 12C13.011 16.2042 12.3083 20.3502 17 22L17 0L15 0z"/>
<path style="fill:#0e0c0a; stroke:none;" d="M17 0L18 1L17 0z"/>
<path style="fill:#ffffff; stroke:none;" d="M18 0L18 22L14 23L13 13L9 13C9 18.0655 8.01075 24.4713 10.858 28.956C15.4791 36.2347 30.5209 36.2347 35.142 28.956C37.9893 24.4713 37 18.0655 37 13L26 10L40 10L40 13L48 16L48 0L25 0L24 23C15.5059 18.5419 23.0029 7.81837 21 0L18 0z"/>
<path style="fill:#6d6154; stroke:none;" d="M21 0L21 3L22 3L21 0z"/>
<path style="fill:#c7b299; stroke:none;" d="M22 0C22.7717 6.24791 16.5785 19.3904 24 22C21.9543 15.2482 28.4662 4.5685 22 0z"/>
<path style="fill:#4d443b; stroke:none;" d="M24.3333 0.666668L24.6667 1.33333L24.3333 0.666668z"/>
<path style="fill:#786b5c; stroke:none;" d="M18.3333 2.66667L18.6667 3.33333L18.3333 2.66667z"/>
<path style="fill:#3d362f; stroke:none;" d="M25.3333 2.66667L25.6667 3.33333L25.3333 2.66667z"/>
<path style="fill:#100e0c; stroke:none;" d="M15 3L16 4L15 3z"/>
<path style="fill:#070605; stroke:none;" d="M22.3333 3.66667L22.6667 4.33333L22.3333 3.66667z"/>
<path style="fill:#716557; stroke:none;" d="M16 4L16 8L17 8L16 4z"/>
<path style="fill:#7e7161; stroke:none;" d="M25 4L25 8L26 8L25 4z"/>
<path style="fill:#38322b; stroke:none;" d="M22.3333 7.66667L22.6667 8.33333L22.3333 7.66667z"/>
<path style="fill:#544c41; stroke:none;" d="M15.3333 8.66667L15.6667 9.33333L15.3333 8.66667z"/>
<path style="fill:#38322b; stroke:none;" d="M18 8L18 11L19 11L18 8z"/>
<path style="fill:#070605; stroke:none;" d="M25.3333 8.66667L25.6667 9.33333L25.3333 8.66667z"/>
<path style="fill:#a4927e; stroke:none;" d="M6 10L6 26L7 26L6 10z"/>
<path style="fill:#433c34; stroke:none;" d="M21 10L22 11L21 10z"/>
<path style="fill:#070605; stroke:none;" d="M26.3333 10.6667L26.6667 11.3333L26.3333 10.6667z"/>
<path style="fill:#2f2a24; stroke:none;" d="M17 11L18 12L17 11z"/>
<path style="fill:#665b4e; stroke:none;" d="M20.3333 11.6667L20.6667 12.3333L20.3333 11.6667z"/>
<path style="fill:#090807; stroke:none;" d="M24 11L25 12L24 11z"/>
<path style="fill:#807363; stroke:none;" d="M8 12L8 26L9 26L9 13L14 14L8 12z"/>
<path style="fill:#363029; stroke:none;" d="M23 12L24 13L23 12z"/>
<path style="fill:#75685a; stroke:none;" d="M27 12L27 13L37 13L37 26L38 26L38 12L27 12z"/>
<path style="fill:#0d0c0a; stroke:none;" d="M16 13L17 14L16 13z"/>
<path style="fill:#776a5b; stroke:none;" d="M40 13L40 14L44 14L40 13z"/>
<path style="fill:#0a0907; stroke:none;" d="M44 13L45 14L44 13z"/>
<path style="fill:#51493e; stroke:none;" d="M15 14L15 19L16 19L15 14z"/>
<path style="fill:#4a4239; stroke:none;" d="M19 14L19 20L20 20L19 14z"/>
<path style="fill:#171411; stroke:none;" d="M22 14L22 19L23 19L22 14z"/>
<path style="fill:#474037; stroke:none;" d="M45 14L46 15L45 14z"/>
<path style="fill:#171411; stroke:none;" d="M12 15L12 18L13 18L12 15z"/>
<path style="fill:#544c41; stroke:none;" d="M46 15L47 16L46 15z"/>
<path style="fill:#ffffff; stroke:none;" d="M40 16L40 25C46.5005 23.9152 45.4532 18.005 40 16z"/>
<path style="fill:#3b352e; stroke:none;" d="M42.6667 16.3333L43.3333 16.6667L42.6667 16.3333z"/>
<path style="fill:#786b5c; stroke:none;" d="M47.3333 16.6667L47.6667 17.3333L47.3333 16.6667z"/>
<path style="fill:#231f1b; stroke:none;" d="M44 17L45 18L44 17z"/>
<path style="fill:#5d5347; stroke:none;" d="M45 18L45 23L46 23L45 18z"/>
<path style="fill:#171411; stroke:none;" d="M16 19L17 20L16 19z"/>
<path style="fill:#010101; stroke:none;" d="M23 19L24 20L23 19z"/>
<path style="fill:#2c2721; stroke:none;" d="M13 20L14 21L13 20z"/>
<path style="fill:#0f0d0b; stroke:none;" d="M17.3333 20.6667L17.6667 21.3333L17.3333 20.6667z"/>
<path style="fill:#655a4e; stroke:none;" d="M20 20L21 21L20 20z"/>
<path style="fill:#060504; stroke:none;" d="M20 21L21 22L20 21z"/>
<path style="fill:#544b40; stroke:none;" d="M14 22L14 23L17 23L14 22z"/>
<path style="fill:#62574b; stroke:none;" d="M21 22L21 23L24 23L21 22z"/>
<path style="fill:#584e43; stroke:none;" d="M44 24L45 25L44 24z"/>
<path style="fill:#0a0907; stroke:none;" d="M47.3333 24.6667L47.6667 25.3333L47.3333 24.6667z"/>
<path style="fill:#342f28; stroke:none;" d="M40 25L40 26L43 26L40 25z"/>
<path style="fill:#39332c; stroke:none;" d="M6 26L6 29L7 29L6 26z"/>
<path style="fill:#3f3931; stroke:none;" d="M9.33333 26.6667L9.66667 27.3333L9.33333 26.6667z"/>
<path style="fill:#37312a; stroke:none;" d="M36.3333 26.6667L36.6667 27.3333L36.3333 26.6667z"/>
<path style="fill:#221e1a; stroke:none;" d="M46 26L47 27L46 26z"/>
<path style="fill:#13110f; stroke:none;" d="M45 27L46 28L45 27z"/>
<path style="fill:#342f28; stroke:none;" d="M39 28L39 29L44 29L39 28z"/>
<path style="fill:#0d0c0a; stroke:none;" d="M7.33333 29.6667L7.66667 30.3333L7.33333 29.6667z"/>
<path style="fill:#3d362f; stroke:none;" d="M10 29L11 30L10 29z"/>
<path style="fill:#352f29; stroke:none;" d="M35 29L36 30L35 29z"/>
<path style="fill:#12100d; stroke:none;" d="M38.3333 29.6667L38.6667 30.3333L38.3333 29.6667z"/>
<path style="fill:#0f0e0c; stroke:none;" d="M11 30L12 31L11 30z"/>
<path style="fill:#0b0a08; stroke:none;" d="M34 30L35 31L34 30z"/>
<path style="fill:#474037; stroke:none;" d="M8 31L9 32L8 31z"/>
<path style="fill:#0c0a09; stroke:none;" d="M12 31L13 32L12 31z"/>
<path style="fill:#080706; stroke:none;" d="M33 31L34 32L33 31z"/>
<path style="fill:#4d443b; stroke:none;" d="M37 31L38 32L37 31z"/>
<path style="fill:#1c1915; stroke:none;" d="M13 32L14 33L13 32z"/>
<path style="fill:#1a1714; stroke:none;" d="M32 32L33 33L32 32z"/>
<path style="fill:#010101; stroke:none;" d="M9 33L10 34L9 33z"/>
<path style="fill:#0c0b09; stroke:none;" d="M14.6667 33.3333L15.3333 33.6667L14.6667 33.3333z"/>
<path style="fill:#60564a; stroke:none;" d="M30.6667 33.3333L31.3333 33.6667L30.6667 33.3333z"/>
<path style="fill:#010101; stroke:none;" d="M36 33L37 34L36 33z"/>
<path style="fill:#010000; stroke:none;" d="M10 34L11 35L10 34z"/>
<path style="fill:#655a4e; stroke:none;" d="M11 34L12 35L11 34z"/>
<path style="fill:#27231e; stroke:none;" d="M16 34L16 35L29 35L16 34z"/>
<path style="fill:#675c4f; stroke:none;" d="M34 34L35 35L34 34z"/>
<path style="fill:#000000; stroke:none;" d="M35 34L36 35L35 34z"/>
<path style="fill:#2b2621; stroke:none;" d="M12 35L13 36L12 35z"/>
<path style="fill:#2a2620; stroke:none;" d="M33 35L34 36L33 35z"/>
<path style="fill:#7e7161; stroke:none;" d="M14.6667 36.3333L15.3333 36.6667L14.6667 36.3333z"/>
<path style="fill:#000000; stroke:none;" d="M31.6667 36.3333L32.3333 36.6667L31.6667 36.3333z"/>
<path style="fill:#423b32; stroke:none;" d="M16 37L16 38L28 38L16 37z"/>
<path style="fill:#000000; stroke:none;" d="M28.6667 37.3333L29.3333 37.6667L28.6667 37.3333z"/>
<path style="fill:#6a5e51; stroke:none;" d="M0 41L0 42L46 42C34.0611 36.9902 13.0035 41 0 41z"/>
<path style="fill:#c7b299; stroke:none;" d="M0 42L0 44L46 44L46 42L0 42z"/>
<path style="fill:#010000; stroke:none;" d="M46 42L47 43L46 42z"/>
</svg>
