<?xml version="1.0" standalone="yes"?>
<svg width="49" height="49">
<path style="fill:#ffffff; stroke:none;" d="M0 0L0 47L1 47L14.6991 16L29 0L0 0z"/>
<path style="fill:#060606; stroke:none;" d="M29.6667 0.333332L30.3333 0.666668L29.6667 0.333332z"/>
<path style="fill:#ffffff; stroke:none;" d="M31 0C31.2955 3.52703 30.3518 5.32705 27.9375 8C20.865 15.8302 -1.58412 46.035 24 34.2299C26.7988 32.9385 29.5847 31.6736 32 29.7253C37.2711 25.4733 41.5473 17.3757 49 18L49 0L31 0z"/>
<path style="fill:#555555; stroke:none;" d="M2 47C16.0518 44.5045 45.5432 32.9214 48 17C42.3035 19.6565 38.6776 24.8 34 28.8665C31.2169 31.286 28.3685 32.2659 25 33.554C22.9398 34.3418 21.0314 35.438 19 36.2855C11.9484 39.2275 10.096 35.1546 13.0008 29C17.1294 20.2522 22.6588 15.29 28.8519 8.00154C30.775 5.73818 31.5574 3.86815 32 1C15.7203 3.51204 4.4353 32.6728 2 47z"/>
<path style="fill:#3a3a3a; stroke:none;" d="M20 20L36 8C37.4473 4.16539 32.9083 5.74775 31 7.21759C26.7502 10.491 22.0812 15.0679 20 20z"/>
<path style="fill:#555555; stroke:none;" d="M20 22C26.6849 20.1237 34.1237 12.6849 36 6C29.6406 8.96561 22.9656 15.6406 20 22z"/>
<path style="fill:#020202; stroke:none;" d="M36 8L29.9961 14.0046C28.7055 15.3044 27.2966 16.5684 26.1489 18C24.1344 20.5129 22.0884 27.4747 28.0193 24.9136C31.9913 23.1984 39.1272 11.3078 43 16L44 16L44 12L24 25L36 8z"/>
<path style="fill:#555555; stroke:none;" d="M38 8L24 25L41 11L41 10L38 8M27 29C34.1884 27.8908 41.8908 20.1884 43 13C36.3151 14.8763 28.8763 22.3151 27 29z"/>
<path style="fill:#171717; stroke:none;" d="M13.3333 17.6667L13.6667 18.3333L13.3333 17.6667z"/>
<path style="fill:#333333; stroke:none;" d="M30 32L46 17L30 32z"/>
<path style="fill:#000000; stroke:none;" d="M48.3333 18.6667L48.6667 19.3333L48.3333 18.6667M16.3333 20.6667L16.6667 21.3333L16.3333 20.6667z"/>
<path style="fill:#ffffff; stroke:none;" d="M48 20C34.4977 33.5023 20.1608 41.8161 2 48L2 49L49 49L48 20z"/>
<path style="fill:#040404; stroke:none;" d="M15.3333 22.6667L15.6667 23.3333L15.3333 22.6667z"/>
<path style="fill:#1c1c1c; stroke:none;" d="M10.3333 24.6667L10.6667 25.3333L10.3333 24.6667z"/>
<path style="fill:#010101; stroke:none;" d="M12.3333 29.6667L12.6667 30.3333L12.3333 29.6667z"/>
<path style="fill:#060606; stroke:none;" d="M11.3333 31.6667L11.6667 32.3333L11.3333 31.6667z"/>
<path style="fill:#1c1c1c; stroke:none;" d="M27.6667 32.3333L28.3333 32.6667L27.6667 32.3333z"/>
<path style="fill:#1a1a1a; stroke:none;" d="M6.33333 33.6667L6.66667 34.3333L6.33333 33.6667z"/>
<path style="fill:#010101; stroke:none;" d="M32.6667 34.3333L33.3333 34.6667L32.6667 34.3333z"/>
<path style="fill:#1f1f1f; stroke:none;" d="M18.6667 36.3333L19.3333 36.6667L18.6667 36.3333z"/>
<path style="fill:#050505; stroke:none;" d="M25.6667 37.3333L26.3333 37.6667L25.6667 37.3333z"/>
<path style="fill:#010101; stroke:none;" d="M23.6667 38.3333L24.3333 38.6667L23.6667 38.3333z"/>
<path style="fill:#212121; stroke:none;" d="M3.33333 40.6667L3.66667 41.3333L3.33333 40.6667z"/>
<path style="fill:#090909; stroke:none;" d="M18.6667 40.3333L19.3333 40.6667L18.6667 40.3333z"/>
<path style="fill:#030303; stroke:none;" d="M16.6667 41.3333L17.3333 41.6667L16.6667 41.3333z"/>
<path style="fill:#171717; stroke:none;" d="M2.33333 42.6667L2.66667 43.3333L2.33333 42.6667z"/>
<path style="fill:#000000; stroke:none;" d="M14.6667 42.3333L15.3333 42.6667L14.6667 42.3333z"/>
<path style="fill:#070707; stroke:none;" d="M9.66667 44.3333L10.3333 44.6667L9.66667 44.3333z"/>
<path style="fill:#333333; stroke:none;" d="M1 45L0 49L4 48L1 45z"/>
<path style="fill:#020202; stroke:none;" d="M7.66667 45.3333L8.33333 45.6667L7.66667 45.3333z"/>
<path style="fill:#000000; stroke:none;" d="M5.66667 46.3333L6.33333 46.6667L5.66667 46.3333z"/>
</svg>
