<?xml version="1.0" standalone="yes"?>
<svg width="64" height="56">
<path style="fill:#ffffff; stroke:none;" d="M0 0L0 39L1.02778 53.3966L10 55L10 51L11 55L11 56L26 54L39 56L41 50L40 55L50 55L50 52L51 54L52 54L53 52L53 55L62.9722 53.3966L64 39L64 0L0 0z"/>
<path style="fill:#272727; stroke:none;" d="M31.6667 0.333332L32.3333 0.666668L31.6667 0.333332z"/>
<path style="fill:#121212; stroke:none;" d="M30 1L31 2L30 1z"/>
<path style="fill:#939393; stroke:none;" d="M30 2L31 3L30 2z"/>
<path style="fill:#484848; stroke:none;" d="M33 2L34 3L33 2z"/>
<path style="fill:#292929; stroke:none;" d="M29 3L30 4L29 3z"/>
<path style="fill:#030303; stroke:none;" d="M34 3L35 4L34 3z"/>
<path style="fill:#6d6d6d; stroke:none;" d="M34 4L35 5L34 4z"/>
<path style="fill:#4a4a4a; stroke:none;" d="M28 5L29 6L28 5z"/>
<path style="fill:#121212; stroke:none;" d="M35 5L36 6L35 5z"/>
<path style="fill:#040404; stroke:none;" d="M27 6L28 7L27 6z"/>
<path style="fill:#929292; stroke:none;" d="M35 6L36 7L35 6z"/>
<path style="fill:#6e6e6e; stroke:none;" d="M27 7L28 8L27 7z"/>
<path style="fill:#282828; stroke:none;" d="M36 7L37 8L36 7z"/>
<path style="fill:#0b0b0b; stroke:none;" d="M26 8L29 15L26 8z"/>
<path style="fill:#434343; stroke:none;" d="M27 9L27 11L38 11L38 9L27 9z"/>
<path style="fill:#ffffff; stroke:none;" d="M27 11L31 19L34 19L36 11L27 11z"/>
<path style="fill:#a9a9a9; stroke:none;" d="M36 11L37 12L36 11z"/>
<path style="fill:#ffffff; stroke:none;" d="M37 11L38 12L37 11z"/>
<path style="fill:#272727; stroke:none;" d="M38 11L39 12L38 11z"/>
<path style="fill:#4a4a4a; stroke:none;" d="M24 12L25 13L24 12z"/>
<path style="fill:#2b2b2b; stroke:none;" d="M36.6667 12.3333L37.3333 12.6667L36.6667 12.3333z"/>
<path style="fill:#121212; stroke:none;" d="M39 12L40 13L39 12z"/>
<path style="fill:#040404; stroke:none;" d="M23 13L24 14L23 13z"/>
<path style="fill:#6f6f6f; stroke:none;" d="M26 13L27 14L26 13z"/>
<path style="fill:#838383; stroke:none;" d="M35 13L36 14L35 13z"/>
<path style="fill:#bbbbbb; stroke:none;" d="M36.6667 13.3333L37.3333 13.6667L36.6667 13.3333z"/>
<path style="fill:#929292; stroke:none;" d="M39 13L40 14L39 13z"/>
<path style="fill:#6e6e6e; stroke:none;" d="M23 14L24 15L23 14z"/>
<path style="fill:#040404; stroke:none;" d="M35 14L35 16L37 14L35 14z"/>
<path style="fill:#282828; stroke:none;" d="M40 14L41 15L40 14z"/>
<path style="fill:#121212; stroke:none;" d="M22 15L23 16L22 15z"/>
<path style="fill:#aaaaaa; stroke:none;" d="M27 15L27 16L30 16L27 15z"/>
<path style="fill:#5e5e5e; stroke:none;" d="M34 15L35 16L34 15z"/>
<path style="fill:#949494; stroke:none;" d="M22 16L23 17L22 16z"/>
<path style="fill:#1f1f1f; stroke:none;" d="M28.6667 16.3333L29.3333 16.6667L28.6667 16.3333z"/>
<path style="fill:#141414; stroke:none;" d="M34 16L33 18L35 18L34 16z"/>
<path style="fill:#727272; stroke:none;" d="M35 16L36 17L35 16z"/>
<path style="fill:#494949; stroke:none;" d="M41 16L42 17L41 16z"/>
<path style="fill:#2a2a2a; stroke:none;" d="M21 17L22 18L21 17z"/>
<path style="fill:#858585; stroke:none;" d="M30 17L31 18L30 17z"/>
<path style="fill:#040404; stroke:none;" d="M42 17L43 18L42 17z"/>
<path style="fill:#0b0b0b; stroke:none;" d="M29 18L30 21L34 20L34 19L29 18z"/>
<path style="fill:#a8a8a8; stroke:none;" d="M32 18L33 19L32 18z"/>
<path style="fill:#979797; stroke:none;" d="M34 18L35 19L34 18z"/>
<path style="fill:#6e6e6e; stroke:none;" d="M42 18L43 19L42 18z"/>
<path style="fill:#aaaaaa; stroke:none;" d="M20 19L30 21L30 20L20 19z"/>
<path style="fill:#515151; stroke:none;" d="M43.3333 19.6667L43.6667 20.3333L43.3333 19.6667z"/>
<path style="fill:#aaaaaa; stroke:none;" d="M33 20L33 21L43 21L33 20z"/>
<path style="fill:#cccccc; stroke:none;" d="M20 22L20 23L30 24L20 22z"/>
<path style="fill:#000000; stroke:none;" d="M30.3333 22.6667L30.6667 23.3333L30.3333 22.6667z"/>
<path style="fill:#cccccc; stroke:none;" d="M33 22L33 23L43 24L33 22z"/>
<path style="fill:#090909; stroke:none;" d="M43 22L43 25L44 25L43 22z"/>
<path style="fill:#858585; stroke:none;" d="M18 23L19 24L18 23z"/>
<path style="fill:#393939; stroke:none;" d="M19.6667 23.3333L20.3333 23.6667L19.6667 23.3333z"/>
<path style="fill:#ffffff; stroke:none;" d="M20 24L20 25L25 31L29 23L20 24z"/>
<path style="fill:#1f1f1f; stroke:none;" d="M33 23L34 24L33 23z"/>
<path style="fill:#ffffff; stroke:none;" d="M34 23L38 31L39 31L42 28L42 23L34 23z"/>
<path style="fill:#4a4a4a; stroke:none;" d="M44.6667 23.3333L45.3333 23.6667L44.6667 23.3333z"/>
<path style="fill:#2b2b2b; stroke:none;" d="M17 24L18 25L17 24z"/>
<path style="fill:#979797; stroke:none;" d="M19 24L20 25L19 24z"/>
<path style="fill:#a6a6a6; stroke:none;" d="M21 24L22 25L21 24z"/>
<path style="fill:#3a3a3a; stroke:none;" d="M29 24L30 25L29 24z"/>
<path style="fill:#848484; stroke:none;" d="M34 24L35 25L34 24z"/>
<path style="fill:#5c5c5c; stroke:none;" d="M42 24L43 25L42 24z"/>
<path style="fill:#040404; stroke:none;" d="M46 24L47 25L46 24z"/>
<path style="fill:#1d1d1d; stroke:none;" d="M20.6667 25.3333L21.3333 25.6667L20.6667 25.3333z"/>
<path style="fill:#a7a7a7; stroke:none;" d="M28 25L29 26L28 25z"/>
<path style="fill:#0b0b0b; stroke:none;" d="M34 25L35 26L34 25z"/>
<path style="fill:#141414; stroke:none;" d="M42 25L41 27L43 27L42 25z"/>
<path style="fill:#737373; stroke:none;" d="M43 25L44 26L43 25z"/>
<path style="fill:#6e6e6e; stroke:none;" d="M46 25L47 26L46 25z"/>
<path style="fill:#4c4c4c; stroke:none;" d="M16 26L17 27L16 26z"/>
<path style="fill:#828282; stroke:none;" d="M22 26L23 27L22 26z"/>
<path style="fill:#1d1d1d; stroke:none;" d="M28 26L29 27L28 26z"/>
<path style="fill:#5f5f5f; stroke:none;" d="M35 26L36 27L35 26z"/>
<path style="fill:#121212; stroke:none;" d="M47 26L48 27L47 26z"/>
<path style="fill:#040404; stroke:none;" d="M15 27L16 28L15 27z"/>
<path style="fill:#0a0a0a; stroke:none;" d="M21 27L25 31L21 27z"/>
<path style="fill:#828282; stroke:none;" d="M27 27L28 28L27 27z"/>
<path style="fill:#010101; stroke:none;" d="M35 27L36 28L35 27z"/>
<path style="fill:#a5a5a5; stroke:none;" d="M40 27L41 28L40 27z"/>
<path style="fill:#9a9a9a; stroke:none;" d="M42 27L43 28L42 27z"/>
<path style="fill:#949494; stroke:none;" d="M47 27L48 28L47 27z"/>
<path style="fill:#717171; stroke:none;" d="M15 28L16 29L15 28z"/>
<path style="fill:#0b0b0b; stroke:none;" d="M27 28L28 29L27 28z"/>
<path style="fill:#3b3b3b; stroke:none;" d="M36 28L37 29L36 28z"/>
<path style="fill:#2e2e2e; stroke:none;" d="M40.6667 28.3333L41.3333 28.6667L40.6667 28.3333z"/>
<path style="fill:#2a2a2a; stroke:none;" d="M48 28L49 29L48 28z"/>
<path style="fill:#141414; stroke:none;" d="M14 29L15 30L14 29z"/>
<path style="fill:#727272; stroke:none;" d="M22 29L23 30L22 29z"/>
<path style="fill:#5d5d5d; stroke:none;" d="M26 29L27 30L26 29z"/>
<path style="fill:#a9a9a9; stroke:none;" d="M37 29L38 30L37 29z"/>
<path style="fill:#808080; stroke:none;" d="M39 29L40 30L39 29z"/>
<path style="fill:#bebebe; stroke:none;" d="M40.6667 29.3333L41.3333 29.6667L40.6667 29.3333z"/>
<path style="fill:#969696; stroke:none;" d="M14 30L15 31L14 30z"/>
<path style="fill:#000000; stroke:none;" d="M26 30L27 31L26 30z"/>
<path style="fill:#1d1d1d; stroke:none;" d="M37 30L38 31L37 30z"/>
<path style="fill:#212121; stroke:none;" d="M39 30L38 31L39 35L40 35L50 33L49 36L52 35L51 31C47.583 32.139 40.1266 33.4935 41 30L39 30z"/>
<path style="fill:#4b4b4b; stroke:none;" d="M49 30L50 31L49 30z"/>
<path style="fill:#212121; stroke:none;" d="M13 31L11 36L24 33L24 32L13 31z"/>
<path style="fill:#999999; stroke:none;" d="M23 31L24 32L23 31z"/>
<path style="fill:#151515; stroke:none;" d="M25 31L26 32L25 31z"/>
<path style="fill:#545454; stroke:none;" d="M14 33L14 34L23 36C24.6075 31.7357 16.6675 33 14 33M40 33L40 34L50 34L40 33z"/>
<path style="fill:#ffffff; stroke:none;" d="M14 34L16 41L19 42L23 34L14 34M40 34L44 41L46 41L50 37L50 34L40 34z"/>
<path style="fill:#7e7e7e; stroke:none;" d="M14 35L15 36L14 35z"/>
<path style="fill:#3a3a3a; stroke:none;" d="M40 35L41 36L40 35z"/>
<path style="fill:#2b2b2b; stroke:none;" d="M52 35L53 36L52 35z"/>
<path style="fill:#141414; stroke:none;" d="M10 36L11 37L10 36z"/>
<path style="fill:#090909; stroke:none;" d="M13 36L17 40L13 36z"/>
<path style="fill:#5c5c5c; stroke:none;" d="M22 36L23 37L22 36z"/>
<path style="fill:#a7a7a7; stroke:none;" d="M41 36L42 37L41 36z"/>
<path style="fill:#a2a2a2; stroke:none;" d="M48 36L49 37L48 36z"/>
<path style="fill:#9c9c9c; stroke:none;" d="M50 36L51 37L50 36z"/>
<path style="fill:#969696; stroke:none;" d="M10 37L11 38L10 37z"/>
<path style="fill:#000000; stroke:none;" d="M22 37L23 38L22 37z"/>
<path style="fill:#1d1d1d; stroke:none;" d="M41 37L42 38L41 37z"/>
<path style="fill:#313131; stroke:none;" d="M48.6667 37.3333L49.3333 37.6667L48.6667 37.3333z"/>
<path style="fill:#4b4b4b; stroke:none;" d="M53 37L54 38L53 37z"/>
<path style="fill:#2b2b2b; stroke:none;" d="M9 38L10 39L9 38z"/>
<path style="fill:#767676; stroke:none;" d="M14 38L15 39L14 38z"/>
<path style="fill:#373737; stroke:none;" d="M21 38L22 39L21 38z"/>
<path style="fill:#828282; stroke:none;" d="M42 38L43 39L42 38z"/>
<path style="fill:#7c7c7c; stroke:none;" d="M47 38L48 39L47 38z"/>
<path style="fill:#c1c1c1; stroke:none;" d="M48.6667 38.3333L49.3333 38.6667L48.6667 38.3333z"/>
<path style="fill:#040404; stroke:none;" d="M54 38L55 39L54 38z"/>
<path style="fill:#a5a5a5; stroke:none;" d="M20 39L21 40L20 39z"/>
<path style="fill:#0b0b0b; stroke:none;" d="M42 39L43 40L42 39z"/>
<path style="fill:#070707; stroke:none;" d="M47 39L44 43L47 44L49 39L47 39z"/>
<path style="fill:#707070; stroke:none;" d="M54 39L55 40L54 39z"/>
<path style="fill:#4d4d4d; stroke:none;" d="M8 40L9 41L8 40z"/>
<path style="fill:#9b9b9b; stroke:none;" d="M15 40L16 41L15 40z"/>
<path style="fill:#a3a3a3; stroke:none;" d="M17 40L18 41L17 40z"/>
<path style="fill:#1d1d1d; stroke:none;" d="M20 40L21 41L20 40z"/>
<path style="fill:#5e5e5e; stroke:none;" d="M43 40L44 41L43 40z"/>
<path style="fill:#131313; stroke:none;" d="M55 40L56 41L55 40z"/>
<path style="fill:#050505; stroke:none;" d="M7 41L8 42L7 41z"/>
<path style="fill:#1b1b1b; stroke:none;" d="M16.6667 41.3333L17.3333 41.6667L16.6667 41.3333z"/>
<path style="fill:#818181; stroke:none;" d="M19 41L20 42L19 41z"/>
<path style="fill:#000000; stroke:none;" d="M43 41L44 42L43 41z"/>
<path style="fill:#c5c5c5; stroke:none;" d="M44.6667 41.3333L45.3333 41.6667L44.6667 41.3333z"/>
<path style="fill:#787878; stroke:none;" d="M47 41L48 42L47 41z"/>
<path style="fill:#959595; stroke:none;" d="M55 41L56 42L55 41z"/>
<path style="fill:#aaaaaa; stroke:none;" d="M7 42C9.85872 45.2715 15.1417 43.9186 19 43L19 42L7 42z"/>
<path style="fill:#090909; stroke:none;" d="M19 42L20 43L19 42z"/>
<path style="fill:#6a6a6a; stroke:none;" d="M56.3333 42.6667L56.6667 43.3333L56.3333 42.6667z"/>
<path style="fill:#020202; stroke:none;" d="M6 43L7 44L6 43z"/>
<path style="fill:#272727; stroke:none;" d="M17 43L18 44L17 43z"/>
<path style="fill:#aaaaaa; stroke:none;" d="M47 43L47 44L56 44L47 43z"/>
<path style="fill:#070707; stroke:none;" d="M6 45L9 49L6 45z"/>
<path style="fill:#cccccc; stroke:none;" d="M7 45L7 46L17 47L7 45z"/>
<path style="fill:#202020; stroke:none;" d="M17 45L18 46L17 45z"/>
<path style="fill:#2e2e2e; stroke:none;" d="M31 45L34 47L34 46L31 45z"/>
<path style="fill:#cccccc; stroke:none;" d="M33 45L33 46L43 47L33 45z"/>
<path style="fill:#070707; stroke:none;" d="M43 45L41 50L43 45z"/>
<path style="fill:#0b0b0b; stroke:none;" d="M46 45L49 50L46 45z"/>
<path style="fill:#cccccc; stroke:none;" d="M47 47L56 46C52.9109 44.7041 49.3075 44.3594 47 47z"/>
<path style="fill:#737373; stroke:none;" d="M56 45L57 46L56 45z"/>
<path style="fill:#9b9b9b; stroke:none;" d="M5 46L6 47L5 46z"/>
<path style="fill:#4f4f4f; stroke:none;" d="M44.6667 46.3333L45.3333 46.6667L44.6667 46.3333z"/>
<path style="fill:#070707; stroke:none;" d="M56 46L53 52L58 46L56 46z"/>
<path style="fill:#6f6f6f; stroke:none;" d="M58 46L59 47L58 46z"/>
<path style="fill:#4e4e4e; stroke:none;" d="M4 47L5 48L4 47z"/>
<path style="fill:#787878; stroke:none;" d="M6 47L7 48L6 47z"/>
<path style="fill:#1d1d1d; stroke:none;" d="M16 47L17 48L16 47z"/>
<path style="fill:#171717; stroke:none;" d="M30 47L31 48L30 47z"/>
<path style="fill:#818181; stroke:none;" d="M34 47L35 48L34 47z"/>
<path style="fill:#7a7a7a; stroke:none;" d="M55 47L56 48L55 47z"/>
<path style="fill:#141414; stroke:none;" d="M59 47L60 48L59 47z"/>
<path style="fill:#060606; stroke:none;" d="M3 48L4 49L3 48z"/>
<path style="fill:#808080; stroke:none;" d="M15 48L16 49L15 48z"/>
<path style="fill:#9b9b9b; stroke:none;" d="M30 48L31 49L30 48z"/>
<path style="fill:#090909; stroke:none;" d="M33 48L37 52L33 48z"/>
<path style="fill:#787878; stroke:none;" d="M43 48L44 49L43 48z"/>
<path style="fill:#727272; stroke:none;" d="M46 48L47 49L46 48z"/>
<path style="fill:#969696; stroke:none;" d="M59 48L60 49L59 48z"/>
<path style="fill:#727272; stroke:none;" d="M3 49L4 50L3 49z"/>
<path style="fill:#9d9d9d; stroke:none;" d="M7 49L8 50L7 49z"/>
<path style="fill:#ffffff; stroke:none;" d="M8 49L9 50L8 49z"/>
<path style="fill:#a0a0a0; stroke:none;" d="M9 49L10 50L9 49z"/>
<path style="fill:#090909; stroke:none;" d="M15 49L16 50L15 49z"/>
<path style="fill:#2f2f2f; stroke:none;" d="M29 49L30 50L29 49z"/>
<path style="fill:#2b2b2b; stroke:none;" d="M60 49L61 50L60 49z"/>
<path style="fill:#141414; stroke:none;" d="M2 50L3 51L2 50z"/>
<path style="fill:#191919; stroke:none;" d="M8.66667 50.3333L9.33333 50.6667L8.66667 50.3333z"/>
<path style="fill:#5b5b5b; stroke:none;" d="M14 50L15 51L14 50z"/>
<path style="fill:#747474; stroke:none;" d="M34 50L35 51L34 50z"/>
<path style="fill:#a0a0a0; stroke:none;" d="M40 50L41 51L40 50z"/>
<path style="fill:#9e9e9e; stroke:none;" d="M42 50L43 51L42 50z"/>
<path style="fill:#999999; stroke:none;" d="M47 50L48 51L47 50z"/>
<path style="fill:#ffffff; stroke:none;" d="M48 50L49 51L48 50z"/>
<path style="fill:#a6a6a6; stroke:none;" d="M49 50L50 51L49 50z"/>
<path style="fill:#7a7a7a; stroke:none;" d="M55 50L56 51L55 50z"/>
<path style="fill:#989898; stroke:none;" d="M2 51L3 52L2 51z"/>
<path style="fill:#7b7b7b; stroke:none;" d="M10 51L11 52L10 51z"/>
<path style="fill:#000000; stroke:none;" d="M14 51L15 52L14 51z"/>
<path style="fill:#525252; stroke:none;" d="M28 51L29 52L28 51z"/>
<path style="fill:#323232; stroke:none;" d="M40.6667 51.3333L41.3333 51.6667L40.6667 51.3333z"/>
<path style="fill:#1d1d1d; stroke:none;" d="M48.6667 51.3333L49.3333 51.6667L48.6667 51.3333z"/>
<path style="fill:#4d4d4d; stroke:none;" d="M61 51L62 52L61 51z"/>
<path style="fill:#2c2c2c; stroke:none;" d="M1 52L2 53L1 52z"/>
<path style="fill:#070707; stroke:none;" d="M9 52L13 55L9 52z"/>
<path style="fill:#373737; stroke:none;" d="M13 52L14 53L13 52z"/>
<path style="fill:#070707; stroke:none;" d="M27 52L28 53L27 52z"/>
<path style="fill:#9b9b9b; stroke:none;" d="M35 52L36 53L35 52z"/>
<path style="fill:#ffffff; stroke:none;" d="M36 52L37 53L36 52z"/>
<path style="fill:#a4a4a4; stroke:none;" d="M37 52L38 53L37 52z"/>
<path style="fill:#7b7b7b; stroke:none;" d="M39 52L40 53L39 52z"/>
<path style="fill:#c2c2c2; stroke:none;" d="M40.6667 52.3333L41.3333 52.6667L40.6667 52.3333z"/>
<path style="fill:#828282; stroke:none;" d="M50 52L51 53L50 52z"/>
<path style="fill:#9e9e9e; stroke:none;" d="M52 52L53 53L52 52z"/>
<path style="fill:#a0a0a0; stroke:none;" d="M54 52L55 53L54 52z"/>
<path style="fill:#040404; stroke:none;" d="M62 52L63 53L62 52z"/>
<path style="fill:#a4a4a4; stroke:none;" d="M12 53L13 54L12 53z"/>
<path style="fill:#777777; stroke:none;" d="M27 53L28 54L27 53z"/>
<path style="fill:#1c1c1c; stroke:none;" d="M36.6667 53.3333L37.3333 53.6667L36.6667 53.3333z"/>
<path style="fill:#212121; stroke:none;" d="M38 54L38 55L50 56L50 55C45.9768 55 40.2026 56.1895 41 53L38 54z"/>
<path style="fill:#000000; stroke:none;" d="M49 53L50 56L54 53L49 53z"/>
<path style="fill:#717171; stroke:none;" d="M62 53L63 54L62 53z"/>
<path style="fill:#212121; stroke:none;" d="M0 54L11 56L11 55L0 54z"/>
<path style="fill:#797979; stroke:none;" d="M10 54L11 55L10 54z"/>
<path style="fill:#212121; stroke:none;" d="M26 54L38 56L38 55L26 54M63 54L53 55L53 56L63 54z"/>
<path style="fill:#ffffff; stroke:none;" d="M51 55L52 56L51 55z"/>
</svg>
