<?xml version="1.0" standalone="yes"?>
<svg width="44" height="44">
<path style="fill:#ffffff; stroke:none;" d="M0 0L0 35L1 35C3.98082 30.9972 9.5565 26.0935 13 32C7.61093 32.6006 4.97392 35.015 3 40C11.9683 42.6509 28.0317 42.6509 37 40C35.0261 35.015 32.3891 32.6006 27 32L28 28C36.2331 30.4111 41.0969 35.0639 39 44L44 44L44 37L31 23C36.4668 23.2957 40.2551 25.1743 43 30L44 30L44 0L28 0L28 1C32.202 4.12919 39.1891 14.2769 31 17C28.8012 31.6047 10.0266 34.9581 9.27855 18C8.65516 3.86744 26.6846 1.06419 30 15L31 15C30.7724 5.58267 26.1569 4.37209 18 3L20 0L0 0z"/>
<path style="fill:#75695a; stroke:none;" d="M20.6667 0.333332L21.3333 0.666668L20.6667 0.333332z"/>
<path style="fill:#c7b299; stroke:none;" d="M19 4C28.1494 2.95176 31.8122 8.2287 32 17L34 17C34 12.1582 34.4501 6.93172 30.8009 3.15741C27.4041 -0.355991 20.5955 -1.45437 19 4z"/>
<path style="fill:#2c2721; stroke:none;" d="M27 0L28 1L27 0z"/>
<path style="fill:#171512; stroke:none;" d="M29 1L30 2L29 1z"/>
<path style="fill:#0f0d0b; stroke:none;" d="M18 2L19 3L18 2z"/>
<path style="fill:#342e27; stroke:none;" d="M30 2L31 3L30 2z"/>
<path style="fill:#060504; stroke:none;" d="M22 3L23 4L22 3z"/>
<path style="fill:#3f3931; stroke:none;" d="M25.6667 3.33333L26.3333 3.66667L25.6667 3.33333z"/>
<path style="fill:#2a2620; stroke:none;" d="M31 3L32 4L31 3z"/>
<path style="fill:#060504; stroke:none;" d="M27 4L28 5L27 4z"/>
<path style="fill:#0c0a09; stroke:none;" d="M32 4L33 5L32 4z"/>
<path style="fill:#5f5549; stroke:none;" d="M16.6667 5.33333L17.3333 5.66667L16.6667 5.33333z"/>
<path style="fill:#c7b299; stroke:none;" d="M18.0039 5.61266C5.47107 8.6135 8.52799 32.8344 21.9992 29.5509C34.5504 26.4917 31.4362 2.39641 18.0039 5.61266z"/>
<path style="fill:#100e0c; stroke:none;" d="M22.6667 5.33333L23.3333 5.66667L22.6667 5.33333z"/>
<path style="fill:#010101; stroke:none;" d="M28 5L29 6L28 5z"/>
<path style="fill:#0e0c0a; stroke:none;" d="M14 6L15 7L14 6z"/>
<path style="fill:#050504; stroke:none;" d="M25 6L26 7L25 6z"/>
<path style="fill:#0f0d0b; stroke:none;" d="M29 6L30 7L29 6z"/>
<path style="fill:#61574a; stroke:none;" d="M33.3333 6.66667L33.6667 7.33333L33.3333 6.66667z"/>
<path style="fill:#211d19; stroke:none;" d="M13 7L14 8L13 7z"/>
<path style="fill:#13110e; stroke:none;" d="M26 7L27 8L26 7z"/>
<path style="fill:#0f0e0c; stroke:none;" d="M30.3333 7.66667L30.6667 8.33333L30.3333 7.66667z"/>
<path style="fill:#1b1815; stroke:none;" d="M12 8L13 9L12 8z"/>
<path style="fill:#171411; stroke:none;" d="M17.6667 8.33333L18.3333 8.66667L17.6667 8.33333z"/>
<path style="fill:#ffffff; stroke:none;" d="M19.0147 8.97068C10.3021 10.7798 11.7171 28.0678 20.9606 26.4576C29.7969 24.9183 27.9678 7.11159 19.0147 8.97068z"/>
<path style="fill:#63584c; stroke:none;" d="M21.6667 8.33333L22.3333 8.66667L21.6667 8.33333z"/>
<path style="fill:#0f0d0b; stroke:none;" d="M27 8L28 9L27 8z"/>
<path style="fill:#5e5448; stroke:none;" d="M11.3333 9.66667L11.6667 10.3333L11.3333 9.66667z"/>
<path style="fill:#0f0d0b; stroke:none;" d="M16 9L17 10L16 9z"/>
<path style="fill:#191613; stroke:none;" d="M23 9L24 10L23 9z"/>
<path style="fill:#463e35; stroke:none;" d="M34 9L34 16L35 16L34 9z"/>
<path style="fill:#0b0a08; stroke:none;" d="M15 10L16 11L15 10z"/>
<path style="fill:#151310; stroke:none;" d="M24 10L25 11L24 10z"/>
<path style="fill:#453d35; stroke:none;" d="M28 10L29 11L28 10z"/>
<path style="fill:#544c41; stroke:none;" d="M31 10L31 17L32 17L31 10z"/>
<path style="fill:#584f44; stroke:none;" d="M10.3333 11.6667L10.6667 12.3333L10.3333 11.6667z"/>
<path style="fill:#1a1814; stroke:none;" d="M14 11L15 12L14 11z"/>
<path style="fill:#342e27; stroke:none;" d="M25 11L26 12L25 11z"/>
<path style="fill:#3c362e; stroke:none;" d="M29.3333 11.6667L29.6667 12.3333L29.3333 11.6667z"/>
<path style="fill:#181512; stroke:none;" d="M13.3333 12.6667L13.6667 13.3333L13.3333 12.6667z"/>
<path style="fill:#010000; stroke:none;" d="M26.3333 13.6667L26.6667 14.3333L26.3333 13.6667z"/>
<path style="fill:#453d35; stroke:none;" d="M9 14L9 21L10 21L9 14z"/>
<path style="fill:#564d42; stroke:none;" d="M12 15L12 20L13 20L12 15z"/>
<path style="fill:#6f6355; stroke:none;" d="M27 15L27 20L28 20L27 15z"/>
<path style="fill:#2b2621; stroke:none;" d="M30 15L30 21L31 21L30 15z"/>
<path style="fill:#050504; stroke:none;" d="M32 17L33 18L32 17z"/>
<path style="fill:#463f36; stroke:none;" d="M13.3333 21.6667L13.6667 22.3333L13.3333 21.6667z"/>
<path style="fill:#60564a; stroke:none;" d="M26.3333 21.6667L26.6667 22.3333L26.3333 21.6667z"/>
<path style="fill:#25211d; stroke:none;" d="M10.3333 22.6667L10.6667 23.3333L10.3333 22.6667z"/>
<path style="fill:#12100d; stroke:none;" d="M29.3333 22.6667L29.6667 23.3333L29.3333 22.6667z"/>
<path style="fill:#040403; stroke:none;" d="M14 23L15 24L14 23z"/>
<path style="fill:#0f0d0b; stroke:none;" d="M25 23L26 24L25 23z"/>
<path style="fill:#3b352e; stroke:none;" d="M31 23L31 26L32 26L31 23z"/>
<path style="fill:#776a5b; stroke:none;" d="M32 23L32 24L35 24L32 23z"/>
<path style="fill:#0c0b09; stroke:none;" d="M35.6667 23.3333L36.3333 23.6667L35.6667 23.3333z"/>
<path style="fill:#c7b299; stroke:none;" d="M32 24L32 26C37.9966 27.4298 40.6673 30.9263 41 37C49.1334 31.6649 37.832 24.1733 32 24z"/>
<path style="fill:#1b1815; stroke:none;" d="M38 24L39 25L38 24z"/>
<path style="fill:#1e1a17; stroke:none;" d="M11 25L12 26L11 25z"/>
<path style="fill:#4d453b; stroke:none;" d="M15 25L16 26L15 25z"/>
<path style="fill:#645a4d; stroke:none;" d="M24 25L25 26L24 25z"/>
<path style="fill:#0f0d0b; stroke:none;" d="M28 25L29 26L28 25z"/>
<path style="fill:#52493f; stroke:none;" d="M39 25L40 26L39 25z"/>
<path style="fill:#4d453b; stroke:none;" d="M12 26L13 27L12 26z"/>
<path style="fill:#0e0c0a; stroke:none;" d="M17 26L18 27L17 26z"/>
<path style="fill:#161311; stroke:none;" d="M22 26L23 27L22 26z"/>
<path style="fill:#37322a; stroke:none;" d="M27 26L28 27L27 26z"/>
<path style="fill:#221e1a; stroke:none;" d="M32 26L32 27L36 27L32 26z"/>
<path style="fill:#000000; stroke:none;" d="M41 26L42 27L41 26z"/>
<path style="fill:#5f5549; stroke:none;" d="M13 27L14 28L13 27z"/>
<path style="fill:#6f6355; stroke:none;" d="M18 27L18 28L22 28L18 27z"/>
<path style="fill:#494138; stroke:none;" d="M26 27L27 28L26 27z"/>
<path style="fill:#060504; stroke:none;" d="M36 27L37 28L36 27z"/>
<path style="fill:#62574b; stroke:none;" d="M41 27L42 28L41 27z"/>
<path style="fill:#0f0d0b; stroke:none;" d="M9 28L9 29L12 29L9 28z"/>
<path style="fill:#433c34; stroke:none;" d="M14 28L15 29L14 28z"/>
<path style="fill:#332d27; stroke:none;" d="M25 28L26 29L25 28z"/>
<path style="fill:#0c0b09; stroke:none;" d="M28.6667 28.3333L29.3333 28.6667L28.6667 28.3333z"/>
<path style="fill:#443d34; stroke:none;" d="M38 28L39 29L38 28z"/>
<path style="fill:#2a2620; stroke:none;" d="M42 28L43 29L42 28z"/>
<path style="fill:#5b5146; stroke:none;" d="M6.66667 29.3333L7.33333 29.6667L6.66667 29.3333z"/>
<path style="fill:#c7b299; stroke:none;" d="M28 29C30.0919 32.1072 36.4684 34.4024 35.963 38.8526C35.5624 42.3799 30.4972 41.982 28 41.9992C19.6675 42.0566 11.3327 42 3 42L12 29C4.30294 29.6984 -6.32036 42.8478 6.00463 43.9414C13.8805 44.6402 29.6003 46.569 36.8519 43.3966C46.4478 39.1986 33.1636 29.5324 28 29z"/>
<path style="fill:#726658; stroke:none;" d="M12.3333 29.6667L12.6667 30.3333L12.3333 29.6667z"/>
<path style="fill:#675c4f; stroke:none;" d="M15.6667 29.3333L16.3333 29.6667L15.6667 29.3333z"/>
<path style="fill:#080706; stroke:none;" d="M23.6667 29.3333L24.3333 29.6667L23.6667 29.3333z"/>
<path style="fill:#776a5b; stroke:none;" d="M27 29L30 32L30 31L27 29z"/>
<path style="fill:#090807; stroke:none;" d="M32.6667 29.3333L33.3333 29.6667L32.6667 29.3333z"/>
<path style="fill:#010000; stroke:none;" d="M39.3333 29.6667L39.6667 30.3333L39.3333 29.6667z"/>
<path style="fill:#040403; stroke:none;" d="M4 30L5 31L4 30z"/>
<path style="fill:#2c2721; stroke:none;" d="M18 30L18 31L22 31L18 30z"/>
<path style="fill:#010000; stroke:none;" d="M34.6667 30.3333L35.3333 30.6667L34.6667 30.3333z"/>
<path style="fill:#6b6052; stroke:none;" d="M43.3333 30.6667L43.6667 31.3333L43.3333 30.6667z"/>
<path style="fill:#110f0d; stroke:none;" d="M3 31L4 32L3 31z"/>
<path style="fill:#8b7d6b; stroke:none;" d="M9 31L9 32L12 32L9 31z"/>
<path style="fill:#12100d; stroke:none;" d="M12 31L13 32L12 31z"/>
<path style="fill:#080706; stroke:none;" d="M36 31L37 32L36 31z"/>
<path style="fill:#090807; stroke:none;" d="M40.3333 31.6667L40.6667 32.3333L40.3333 31.6667z"/>
<path style="fill:#151310; stroke:none;" d="M2 32L3 33L2 32z"/>
<path style="fill:#191613; stroke:none;" d="M7.66667 32.3333L8.33333 32.6667L7.66667 32.3333z"/>
<path style="fill:#75695a; stroke:none;" d="M31.6667 32.3333L32.3333 32.6667L31.6667 32.3333z"/>
<path style="fill:#0b0a08; stroke:none;" d="M37 32L38 33L37 32z"/>
<path style="fill:#5c5246; stroke:none;" d="M1.33333 33.6667L1.66667 34.3333L1.33333 33.6667z"/>
<path style="fill:#1e1b17; stroke:none;" d="M6 33L7 34L6 33z"/>
<path style="fill:#2c2822; stroke:none;" d="M33 33L34 34L33 33z"/>
<path style="fill:#0f0e0c; stroke:none;" d="M5 34L6 35L5 34z"/>
<path style="fill:#1b1815; stroke:none;" d="M34 34L35 35L34 34z"/>
<path style="fill:#423b33; stroke:none;" d="M38 34L39 35L38 34z"/>
<path style="fill:#4a4239; stroke:none;" d="M0.333333 35.6667L0.666667 36.3333L0.333333 35.6667z"/>
<path style="fill:#24201b; stroke:none;" d="M4 35L5 36L4 35z"/>
<path style="fill:#38322b; stroke:none;" d="M35 35L36 36L35 35z"/>
<path style="fill:#322d26; stroke:none;" d="M39.3333 35.6667L39.6667 36.3333L39.3333 35.6667z"/>
<path style="fill:#2a2620; stroke:none;" d="M3 36L3 39L4 39L3 36z"/>
<path style="fill:#63584c; stroke:none;" d="M43 36L44 37L43 36z"/>
<path style="fill:#0b0a08; stroke:none;" d="M36.3333 37.6667L36.6667 38.3333L36.3333 37.6667z"/>
<path style="fill:#0c0a09; stroke:none;" d="M42 37L43 38L42 37z"/>
<path style="fill:#010101; stroke:none;" d="M3 40L4 41L3 40z"/>
<path style="fill:#080706; stroke:none;" d="M36 40L37 41L36 40z"/>
<path style="fill:#928270; stroke:none;" d="M3 41L3 42L36 42L3 41z"/>
<path style="fill:#28241e; stroke:none;" d="M0 42L1 43L0 42z"/>
<path style="fill:#181512; stroke:none;" d="M39 42L40 43L39 42z"/>
<path style="fill:#ffffff; stroke:none;" d="M0 43L1 44L0 43z"/>
<path style="fill:#26221d; stroke:none;" d="M1 43L2 44L1 43z"/>
<path style="fill:#1a1814; stroke:none;" d="M38 43L39 44L38 43z"/>
</svg>
